<svg width="320" height="320" viewBox="0 0 320 320" fill="none" xmlns="http://www.w3.org/2000/svg">
<path d="M60.1869 145.176C60.1869 145.176 104.496 143.402 114.072 70.5665C122.575 5.88154 197.293 35.3238 218.891 61.1087C246.869 94.511 231.955 151.97 268.148 159.229C304.342 166.487 280.707 247.191 225.767 239.467C157.424 229.857 173.959 269.793 153.443 286.697C138.719 298.828 78.345 287.15 76.3328 243.112C74.6395 206.054 59.0078 206.171 47.928 201.97C31.9483 195.909 21.8794 152.02 60.1869 145.176Z" fill="#EFEAFA"/>
<path d="M210.814 226.065L167.281 183.049L158.661 191.773L202.194 234.789L210.814 226.065Z" fill="#AD98E6"/>
<path d="M227.445 237.624L193.576 204.157C193.387 203.97 193.083 203.972 192.897 204.161L180.078 217.134C179.892 217.322 179.893 217.626 180.082 217.813L213.951 251.279C214.139 251.466 214.443 251.464 214.63 251.275L227.449 238.302C227.635 238.114 227.633 237.81 227.445 237.624Z" fill="#8C6FDC"/>
<path d="M128.699 204.683C158.648 204.683 182.927 180.404 182.927 150.455C182.927 120.505 158.648 96.2266 128.699 96.2266C98.7494 96.2266 74.4707 120.505 74.4707 150.455C74.4707 180.404 98.7494 204.683 128.699 204.683Z" fill="#8C6FDC"/>
<path d="M128.698 195.835C153.761 195.835 174.078 175.517 174.078 150.455C174.078 125.392 153.761 105.075 128.698 105.075C103.636 105.075 83.3184 125.392 83.3184 150.455C83.3184 175.517 103.636 195.835 128.698 195.835Z" fill="#CEC1F0"/>
<path d="M220.378 101.432C207.658 97.309 193.911 104.282 189.771 117.055C185.648 129.775 192.622 143.521 205.394 147.661C218.167 151.8 231.877 144.759 236.001 132.038C240.125 119.317 233.098 105.555 220.378 101.432ZM216.539 113.274C217.963 113.735 219.218 114.609 220.144 115.785C221.071 116.96 221.627 118.385 221.743 119.877C221.859 121.369 221.529 122.862 220.795 124.166C220.061 125.471 218.956 126.528 217.62 127.203C216.285 127.879 214.779 128.143 213.293 127.961C211.807 127.78 210.409 127.161 209.276 126.184C208.142 125.206 207.324 123.914 206.926 122.472C206.528 121.029 206.567 119.5 207.039 118.08C208.313 114.15 212.609 112 216.539 113.274ZM206.936 142.903C202.71 141.541 199.089 138.751 196.694 135.012C201.176 132.465 205.863 131.756 210.104 133.13C214.344 134.505 217.792 137.793 219.86 142.521C215.727 144.144 211.158 144.279 206.936 142.903Z" fill="#8C6FDC"/>
<path d="M114.504 217.344C112.295 218.472 110.469 220.229 109.259 222.395C108.048 224.56 107.507 227.035 107.703 229.508C107.9 231.981 108.825 234.34 110.362 236.287C111.899 238.234 113.979 239.681 116.339 240.446C118.699 241.211 121.232 241.259 123.619 240.584C126.006 239.909 128.139 238.541 129.749 236.654C131.359 234.766 132.373 232.444 132.662 229.98C132.952 227.516 132.505 225.022 131.377 222.813C129.862 219.853 127.235 217.615 124.071 216.589C120.908 215.564 117.467 215.835 114.504 217.344ZM117.425 223.067C118.113 222.716 118.89 222.577 119.658 222.668C120.425 222.759 121.148 223.075 121.735 223.578C122.322 224.08 122.746 224.746 122.955 225.49C123.163 226.234 123.145 227.023 122.904 227.757C122.664 228.491 122.21 229.137 121.601 229.613C120.993 230.089 120.257 230.373 119.486 230.43C118.716 230.487 117.945 230.314 117.274 229.933C116.602 229.551 116.058 228.979 115.712 228.288C115.253 227.367 115.176 226.303 115.496 225.325C115.817 224.348 116.51 223.536 117.425 223.066V223.067ZM124.735 237.387C122.695 238.432 120.355 238.735 118.116 238.245C118.823 235.679 120.274 233.71 122.324 232.664C124.374 231.618 126.832 231.56 129.313 232.53C128.396 234.631 126.778 236.348 124.735 237.386V237.387Z" fill="#8C6FDC"/>
<path d="M145.8 143H112.2C109.88 143 108 144.79 108 147V171C108 173.209 109.88 175 112.2 175H145.8C148.12 175 150 173.209 150 171V147C150 144.79 148.12 143 145.8 143Z" fill="#CEC1F0" stroke="#8C6FDC" stroke-width="8" stroke-linecap="round" stroke-linejoin="round"/>
<path d="M143.701 143V137C143.701 133.287 142.152 129.726 139.395 127.101C136.638 124.475 132.899 123 129.001 123C125.102 123 121.363 124.475 118.606 127.101C115.85 129.726 114.301 133.287 114.301 137V143" stroke="#8C6FDC" stroke-width="8" stroke-linecap="round" stroke-linejoin="round"/>
<path d="M129 162.433C130.16 162.433 131.1 161.172 131.1 159.616C131.1 158.06 130.16 156.799 129 156.799C127.841 156.799 126.9 158.06 126.9 159.616C126.9 161.172 127.841 162.433 129 162.433Z" stroke="#8C6FDC" stroke-width="8" stroke-linecap="round" stroke-linejoin="round"/>
</svg>
