<svg width="320" height="320" viewBox="0 0 320 320" fill="none" xmlns="http://www.w3.org/2000/svg">
<path d="M60.1869 145.176C60.1869 145.176 104.496 143.402 114.072 70.5665C122.575 5.88154 197.293 35.3238 218.891 61.1087C246.869 94.511 231.955 151.97 268.148 159.229C304.342 166.487 280.707 247.191 225.767 239.467C157.424 229.857 173.959 269.793 153.443 286.697C138.719 298.828 78.345 287.15 76.3328 243.112C74.6395 206.054 59.0078 206.171 47.928 201.97C31.9483 195.909 21.8794 152.02 60.1869 145.176Z" fill="#EFEAFA"/>
<path d="M210.815 226.065L167.282 183.049L158.662 191.773L202.195 234.789L210.815 226.065Z" fill="#AD98E6"/>
<path d="M227.445 237.624L193.576 204.157C193.387 203.97 193.083 203.972 192.897 204.161L180.078 217.134C179.892 217.322 179.893 217.626 180.082 217.813L213.951 251.279C214.139 251.466 214.443 251.464 214.63 251.275L227.449 238.302C227.635 238.114 227.633 237.81 227.445 237.624Z" fill="#8C6FDC"/>
<path d="M128.699 204.683C158.648 204.683 182.927 180.404 182.927 150.455C182.927 120.505 158.648 96.2266 128.699 96.2266C98.7494 96.2266 74.4707 120.505 74.4707 150.455C74.4707 180.404 98.7494 204.683 128.699 204.683Z" fill="#8C6FDC"/>
<path d="M128.699 195.835C153.762 195.835 174.079 175.517 174.079 150.455C174.079 125.392 153.762 105.075 128.699 105.075C103.637 105.075 83.3193 125.392 83.3193 150.455C83.3193 175.517 103.637 195.835 128.699 195.835Z" fill="#CEC1F0"/>
<path d="M220.378 101.432C207.658 97.309 193.911 104.282 189.771 117.055C185.648 129.775 192.622 143.521 205.394 147.661C218.167 151.8 231.877 144.759 236.001 132.038C240.125 119.317 233.098 105.555 220.378 101.432ZM216.539 113.274C217.963 113.735 219.218 114.609 220.144 115.785C221.071 116.96 221.627 118.385 221.743 119.877C221.859 121.369 221.529 122.862 220.795 124.166C220.061 125.471 218.956 126.528 217.62 127.203C216.285 127.879 214.779 128.143 213.293 127.961C211.807 127.78 210.409 127.161 209.276 126.184C208.142 125.206 207.324 123.914 206.926 122.472C206.528 121.029 206.567 119.5 207.039 118.08C208.313 114.15 212.609 112 216.539 113.274ZM206.936 142.903C202.71 141.541 199.089 138.751 196.694 135.012C201.176 132.465 205.863 131.756 210.104 133.13C214.344 134.505 217.792 137.793 219.86 142.521C215.727 144.144 211.158 144.279 206.936 142.903Z" fill="#8C6FDC"/>
<path d="M114.505 217.344C112.296 218.472 110.47 220.229 109.26 222.395C108.049 224.56 107.508 227.035 107.704 229.508C107.901 231.981 108.826 234.34 110.363 236.287C111.9 238.234 113.98 239.681 116.34 240.446C118.7 241.211 121.233 241.259 123.62 240.584C126.007 239.909 128.14 238.541 129.75 236.654C131.36 234.766 132.374 232.444 132.663 229.98C132.953 227.516 132.506 225.022 131.378 222.813C129.863 219.853 127.236 217.615 124.072 216.589C120.909 215.564 117.468 215.835 114.505 217.344ZM117.426 223.067C118.114 222.716 118.891 222.577 119.659 222.668C120.426 222.759 121.149 223.075 121.736 223.578C122.323 224.08 122.747 224.746 122.956 225.49C123.164 226.234 123.146 227.023 122.905 227.757C122.664 228.491 122.211 229.137 121.602 229.613C120.994 230.089 120.258 230.373 119.487 230.43C118.716 230.487 117.946 230.314 117.275 229.933C116.603 229.551 116.059 228.979 115.713 228.288C115.254 227.367 115.177 226.303 115.497 225.325C115.818 224.348 116.511 223.536 117.426 223.066V223.067ZM124.736 237.387C122.696 238.432 120.356 238.735 118.117 238.245C118.824 235.679 120.275 233.71 122.325 232.664C124.375 231.618 126.833 231.56 129.314 232.53C128.397 234.631 126.779 236.348 124.736 237.386V237.387Z" fill="#8C6FDC"/>
</svg>
