<svg width="45" height="45" viewBox="0 0 45 45" fill="none" xmlns="http://www.w3.org/2000/svg">
<g opacity="0.1">
<path d="M35.625 3.75H9.375C7.88316 3.75 6.45242 4.34263 5.39752 5.39752C4.34263 6.45242 3.75 7.88316 3.75 9.375V33.75V35.625C3.75 37.1168 4.34263 38.5476 5.39752 39.6025C6.45242 40.6574 7.88316 41.25 9.375 41.25H35.625C37.1168 41.25 38.5476 40.6574 39.6025 39.6025C40.6574 38.5476 41.25 37.1168 41.25 35.625V9.375C41.25 7.88316 40.6574 6.45242 39.6025 5.39752C38.5476 4.34263 37.1168 3.75 35.625 3.75ZM9.375 7.5H35.625C36.1223 7.5 36.5992 7.69754 36.9508 8.04918C37.3025 8.40081 37.5 8.87772 37.5 9.375V32.9813L33.975 29.4563C32.9574 28.4416 31.59 27.8549 30.1535 27.8166C28.717 27.7782 27.3203 28.2911 26.25 29.25L20.8312 23.8313C19.7766 22.7779 18.3469 22.1862 16.8562 22.1862C15.3656 22.1862 13.9359 22.7779 12.8812 23.8313L7.5 29.2313V9.375C7.5 8.87772 7.69754 8.40081 8.04918 8.04918C8.40081 7.69754 8.87772 7.5 9.375 7.5V7.5ZM9.375 37.5C8.87772 37.5 8.40081 37.3025 8.04918 36.9508C7.69754 36.5992 7.5 36.1223 7.5 35.625V34.5187L15.5437 26.475C15.7181 26.2993 15.9254 26.1598 16.1539 26.0646C16.3824 25.9694 16.6275 25.9204 16.875 25.9204C17.1225 25.9204 17.3676 25.9694 17.5961 26.0646C17.8246 26.1598 18.0319 26.2993 18.2063 26.475L24.9187 33.2062C25.2474 33.524 25.6808 33.7107 26.1375 33.7312H26.3812C26.8291 33.6969 27.2521 33.5118 27.5813 33.2062V33.2062L28.6687 32.1C28.8431 31.9243 29.0504 31.7848 29.2789 31.6896C29.5074 31.5944 29.7525 31.5454 30 31.5454C30.2475 31.5454 30.4926 31.5944 30.7211 31.6896C30.9496 31.7848 31.1569 31.9243 31.3312 32.1L36.4875 37.2563C36.2269 37.4129 35.9291 37.4971 35.625 37.5H9.375ZM28.7437 21.6937C29.8192 21.6937 30.8705 21.3748 31.7647 20.7774C32.6589 20.1799 33.3558 19.3307 33.7673 18.3371C34.1789 17.3435 34.2866 16.2502 34.0768 15.1954C33.867 14.1407 33.3491 13.1718 32.5886 12.4114C31.8282 11.6509 30.8593 11.133 29.8046 10.9232C28.7498 10.7134 27.6565 10.8211 26.6629 11.2327C25.6693 11.6442 24.8201 12.3411 24.2226 13.2353C23.6252 14.1295 23.3063 15.1808 23.3063 16.2563C23.3063 17.6984 23.8791 19.0814 24.8989 20.1011C25.9186 21.1209 27.3016 21.6937 28.7437 21.6937V21.6937ZM28.7437 14.1938C29.1517 14.1938 29.5504 14.3147 29.8896 14.5413C30.2288 14.768 30.4931 15.0901 30.6493 15.467C30.8054 15.8438 30.8462 16.2585 30.7666 16.6586C30.687 17.0587 30.4906 17.4262 30.2022 17.7147C29.9137 18.0031 29.5462 18.1995 29.1461 18.2791C28.746 18.3587 28.3313 18.3179 27.9545 18.1618C27.5776 18.0056 27.2555 17.7413 27.0288 17.4021C26.8022 17.0629 26.6812 16.6642 26.6812 16.2563C26.6812 15.7092 26.8985 15.1846 27.2853 14.7978C27.6721 14.411 28.1967 14.1938 28.7437 14.1938V14.1938Z" fill="#222221"/>
</g>
</svg>
